<svg width="180" height="60" viewBox="0 0 180 60" fill="none" xmlns="http://www.w3.org/2000/svg">
<g clip-path="url(#clip0_7_20)">
<g clip-path="url(#clip1_7_20)">
<path d="M174.905 41.9465H171.492C171.216 41.9466 170.943 41.8924 170.688 41.7869C170.433 41.6814 170.202 41.5268 170.007 41.3318C169.812 41.1368 169.657 40.9054 169.552 40.6506C169.447 40.3958 169.393 40.1228 169.393 39.8471V28.6617H166.294C166.015 28.6615 165.748 28.5507 165.551 28.3537C165.353 28.1567 165.242 27.8896 165.242 27.6109V24.0391H169.393V20.1529C169.393 19.8772 169.447 19.6042 169.552 19.3494C169.657 19.0946 169.812 18.8631 170.007 18.6682C170.202 18.4732 170.433 18.3186 170.688 18.2131C170.943 18.1076 171.216 18.0534 171.492 18.0535H174.905V24.041H178.896C179.175 24.0411 179.443 24.1518 179.64 24.3488C179.837 24.5459 179.948 24.8131 179.948 25.0918V28.6636H174.905V36.2772C174.896 36.5616 174.989 36.8397 175.166 37.0625C175.409 37.2398 175.704 37.332 176.005 37.3247H178.949C179.227 37.3251 179.495 37.4361 179.692 37.6333C179.889 37.8305 179.999 38.0978 180 38.3765V41.9483L174.905 41.9465ZM149.436 41.9465H146.024C145.749 41.9467 145.475 41.8926 145.221 41.7872C144.966 41.6818 144.734 41.5272 144.539 41.3323C144.344 41.1373 144.19 40.9059 144.084 40.6511C143.979 40.3963 143.925 40.1233 143.925 39.8476V32.9939H143.929V26.1394C143.929 25.8637 143.983 25.5907 144.088 25.3359C144.194 25.0811 144.348 24.8497 144.543 24.6547C144.738 24.4598 144.97 24.3052 145.224 24.1998C145.479 24.0944 145.752 24.0403 146.028 24.0405H159.469C160.026 24.0405 160.561 24.2615 160.955 24.655C161.349 25.0485 161.571 25.5824 161.572 26.1394V32.969C161.572 33.2447 161.518 33.5176 161.413 33.7722C161.307 34.0269 161.152 34.2582 160.957 34.453C160.763 34.6478 160.531 34.8023 160.276 34.9075C160.022 35.0128 159.749 35.0668 159.473 35.0665H149.436V37.3224H159.361C159.64 37.3228 159.907 37.4337 160.104 37.6309C160.301 37.8281 160.412 38.0954 160.412 38.3742V41.946L149.436 41.9465ZM149.441 31.8646H155.057C155.336 31.8645 155.603 31.7537 155.8 31.5567C155.997 31.3596 156.108 31.0924 156.108 30.8137V29.347C156.108 29.0682 155.997 28.8008 155.8 28.6036C155.603 28.4063 155.336 28.2954 155.057 28.2952H149.441V31.8646ZM122.606 41.9455V21.2023L128.118 18.0784V24.041H138.149C138.425 24.0407 138.698 24.0947 138.953 24.2001C139.208 24.3054 139.44 24.46 139.635 24.655C139.83 24.8499 139.985 25.0814 140.09 25.3362C140.196 25.591 140.25 25.8641 140.25 26.1399V39.8466C140.25 40.1224 140.196 40.3955 140.09 40.6503C139.985 40.9051 139.83 41.1366 139.635 41.3315C139.44 41.5265 139.208 41.681 138.953 41.7864C138.698 41.8918 138.425 41.9458 138.149 41.9455H122.606ZM128.122 37.3247H133.738C134.017 37.3244 134.284 37.2134 134.481 37.0163C134.678 36.8191 134.789 36.5518 134.79 36.2729V29.7615C134.789 29.4827 134.678 29.2155 134.481 29.0185C134.284 28.8215 134.016 28.7107 133.738 28.7106H128.122V37.3247ZM149.437 37.3247V36.2772C149.429 36.5616 149.521 36.8397 149.698 37.0625C149.942 37.2399 150.237 37.3321 150.538 37.3247H149.437ZM149.437 36.2203V36.2772C149.436 36.2415 149.437 36.2203 149.437 36.2203H149.437Z" fill="#FFB960"/>
<path d="M106.803 41.947H103.391C103.115 41.9472 102.842 41.8931 102.587 41.7877C102.332 41.6823 102.101 41.5277 101.906 41.3327C101.711 41.1378 101.556 40.9064 101.451 40.6516C101.345 40.3969 101.291 40.1239 101.291 39.8482V26.14C101.291 25.8643 101.345 25.5913 101.451 25.3365C101.556 25.0818 101.711 24.8503 101.906 24.6554C102.101 24.4605 102.332 24.3059 102.587 24.2005C102.842 24.0951 103.115 24.0409 103.391 24.0411H116.832C117.389 24.0405 117.924 24.2612 118.319 24.6548C118.713 25.0485 118.935 25.5827 118.936 26.14V32.9706C118.936 33.2463 118.882 33.5193 118.776 33.7741C118.671 34.0289 118.516 34.2604 118.321 34.4553C118.126 34.6503 117.895 34.8049 117.64 34.9104C117.385 35.0158 117.112 35.0701 116.837 35.0699H106.803V36.2745C106.794 36.5602 106.887 36.8396 107.065 37.0636C107.308 37.241 107.603 37.3332 107.904 37.3258H116.726C117.004 37.3266 117.27 37.4374 117.467 37.634C117.664 37.8307 117.774 38.0972 117.775 38.3753V41.947H106.803ZM106.803 31.8661H112.417C112.696 31.8658 112.964 31.7548 113.161 31.5577C113.358 31.3605 113.469 31.0932 113.469 30.8143V29.3471C113.469 29.0682 113.358 28.8009 113.161 28.6038C112.964 28.4066 112.696 28.2957 112.417 28.2953H106.803V31.8661ZM92.1006 41.947V29.7066C92.1088 29.4219 92.0159 29.1435 91.8383 28.9208C91.6245 28.7578 91.3641 28.6674 91.0953 28.6628H85.4843V41.947H79.9724V24.0411H95.5135C95.7893 24.0407 96.0624 24.0948 96.3173 24.2001C96.5722 24.3054 96.8038 24.46 96.9988 24.655C97.1939 24.8499 97.3485 25.0814 97.454 25.3363C97.5594 25.5911 97.6136 25.8642 97.6133 26.14V41.947H92.1006ZM43.9495 41.947H40.5375C40.2618 41.9472 39.9887 41.893 39.734 41.7875C39.4792 41.682 39.2477 41.5274 39.0527 41.3324C38.8578 41.1375 38.7031 40.906 38.5977 40.6512C38.4922 40.3965 38.438 40.1234 38.4381 39.8477V26.14C38.438 25.8643 38.4922 25.5913 38.5976 25.3366C38.7031 25.0819 38.8577 24.8505 39.0526 24.6556C39.2475 24.4606 39.479 24.306 39.7337 24.2006C39.9884 24.0952 40.2614 24.041 40.537 24.0411H54.9769V27.6129C54.9768 27.8918 54.866 28.1593 54.6687 28.3565C54.4715 28.5537 54.2041 28.6646 53.9251 28.6647H44.9538C44.685 28.6694 44.4247 28.7598 44.2108 28.9227C44.0338 29.1455 43.9412 29.4236 43.9495 29.708V36.2773C43.9412 36.5617 44.0338 36.8399 44.2108 37.0626C44.4543 37.2401 44.7495 37.3322 45.0506 37.3249H53.9251C54.2039 37.325 54.4712 37.4357 54.6684 37.6327C54.8656 37.8298 54.9766 38.097 54.9769 38.3757V41.9475L43.9495 41.947ZM21.3175 41.947V26.14C21.318 25.5833 21.5394 25.0496 21.9331 24.6561C22.3268 24.2625 22.8607 24.0413 23.4173 24.0411H34.7629V27.6129C34.7628 27.8916 34.6521 28.159 34.4551 28.3561C34.2581 28.5533 33.9908 28.6643 33.7121 28.6647H27.8346C27.5658 28.6694 27.3055 28.7598 27.0916 28.9227C26.9145 29.1467 26.822 29.4259 26.8303 29.7113V41.947H21.3175ZM60.7548 41.9428C60.479 41.943 60.206 41.8888 59.9512 41.7834C59.6964 41.678 59.4649 41.5233 59.2699 41.3283C59.0749 41.1334 58.9203 40.9019 58.8148 40.6471C58.7094 40.3923 58.6552 40.1192 58.6554 39.8435V33.0176C58.6553 32.7419 58.7095 32.4688 58.815 32.2141C58.9204 31.9594 59.0751 31.7279 59.2701 31.533C59.465 31.3381 59.6965 31.1835 59.9513 31.0781C60.206 30.9726 60.4791 30.9185 60.7548 30.9187V30.9144H70.7821V29.7061C70.7903 29.4217 70.6978 29.1436 70.5208 28.9208C70.3069 28.7579 70.0466 28.6675 69.7778 28.6628H60.8587C60.5801 28.6627 60.3129 28.5521 60.1157 28.3553C59.9185 28.1584 59.8075 27.8915 59.8068 27.6129V24.0411H74.1951C74.4708 24.0409 74.7438 24.0951 74.9986 24.2005C75.2533 24.3059 75.4848 24.4605 75.6798 24.6554C75.8748 24.8503 76.0294 25.0818 76.1349 25.3365C76.2403 25.5913 76.2946 25.8643 76.2944 26.14V30.9144H76.2987V41.9423L60.7548 41.9428ZM64.1146 35.17V36.6401C64.115 36.919 64.2259 37.1863 64.4231 37.3834C64.6203 37.5806 64.8876 37.6915 65.1664 37.6919H70.7831V34.1201H65.1664C64.8879 34.1204 64.6208 34.2309 64.4236 34.4276C64.2264 34.6243 64.1151 34.8911 64.1142 35.1696L64.1146 35.17ZM2.0989 41.9423C1.82314 41.9425 1.55004 41.8883 1.29525 41.7829C1.04045 41.6774 0.808958 41.5227 0.614008 41.3277C0.419058 41.1326 0.264481 40.9011 0.159123 40.6462C0.0537642 40.3914 -0.000307689 40.1183 1.31696e-06 39.8425V33.0176C-0.000245948 32.7419 0.0538749 32.4688 0.159267 32.2141C0.264659 31.9593 0.419253 31.7278 0.614203 31.5329C0.809153 31.3379 1.04063 31.1833 1.29539 31.0779C1.55016 30.9725 1.8232 30.9184 2.0989 30.9187V30.9144H12.1281V29.6277C12.1255 29.37 12.0344 29.1211 11.8701 28.9227C11.6562 28.7598 11.3959 28.6694 11.1271 28.6647H1.88553L10.1857 24.0411H15.5401C15.8158 24.0409 16.0889 24.0951 16.3436 24.2005C16.5984 24.3059 16.8299 24.4605 17.0248 24.6554C17.2198 24.8503 17.3745 25.0818 17.4799 25.3365C17.5854 25.5913 17.6396 25.8643 17.6395 26.14V30.9144H17.6428V41.9423H2.0989ZM5.4592 35.1696V36.6396C5.45933 36.9184 5.57005 37.1857 5.76707 37.3829C5.96409 37.5801 6.23131 37.6911 6.51006 37.6914H12.1253V34.1197H6.51053C6.23202 34.1199 5.96497 34.2306 5.7679 34.4274C5.57084 34.6242 5.45983 34.8911 5.4592 35.1696V35.1696Z" fill="white"/>
</g>
</g>
<defs>
<clipPath id="clip0_7_20">
<rect width="180" height="60" fill="white"/>
</clipPath>
<clipPath id="clip1_7_20">
<rect width="180" height="23.8929" fill="white" transform="translate(0 18.0535)"/>
</clipPath>
</defs>
</svg>
